<mxfile host="app.diagrams.net" agent="Mozilla/5.0 (Windows NT 10.0; Win64; x64) AppleWebKit/537.36 (KHTML, like Gecko) Chrome/138.0.0.0 Safari/537.36" version="28.0.4">
  <diagram name="Page-1" id="05cWn9i7_y3qdId7f2hX">
    <mxGraphModel dx="2053" dy="661" grid="1" gridSize="10" guides="1" tooltips="1" connect="1" arrows="1" fold="1" page="1" pageScale="1" pageWidth="827" pageHeight="1169" math="0" shadow="0">
      <root>
        <mxCell id="0" />
        <mxCell id="1" parent="0" />
        <mxCell id="GIh9812gzua0K8-fXQKY-1" value="ทบทวนสัญลักษณ์" style="swimlane;fontFamily=Sarabun;fontSource=https%3A%2F%2Ffonts.googleapis.com%2Fcss%3Ffamily%3DSarabun;" vertex="1" parent="1">
          <mxGeometry x="-720" y="20" width="640" height="290" as="geometry" />
        </mxCell>
        <mxCell id="GIh9812gzua0K8-fXQKY-2" value="&lt;font data-font-src=&quot;https://fonts.googleapis.com/css?family=Sarabun&quot; face=&quot;Sarabun&quot;&gt;เริ่มต้น&lt;/font&gt;" style="ellipse;whiteSpace=wrap;html=1;" vertex="1" parent="GIh9812gzua0K8-fXQKY-1">
          <mxGeometry x="20" y="40" width="130" height="30" as="geometry" />
        </mxCell>
        <mxCell id="GIh9812gzua0K8-fXQKY-3" value="" style="endArrow=classic;html=1;rounded=0;" edge="1" parent="GIh9812gzua0K8-fXQKY-1">
          <mxGeometry width="50" height="50" relative="1" as="geometry">
            <mxPoint x="84.5" y="70" as="sourcePoint" />
            <mxPoint x="84.5" y="120" as="targetPoint" />
          </mxGeometry>
        </mxCell>
        <mxCell id="GIh9812gzua0K8-fXQKY-4" value="&lt;font face=&quot;Sarabun&quot;&gt;สิ้นสุด&lt;/font&gt;" style="ellipse;whiteSpace=wrap;html=1;" vertex="1" parent="GIh9812gzua0K8-fXQKY-1">
          <mxGeometry x="150" y="90" width="130" height="30" as="geometry" />
        </mxCell>
        <mxCell id="GIh9812gzua0K8-fXQKY-5" value="" style="endArrow=classic;html=1;rounded=0;" edge="1" parent="GIh9812gzua0K8-fXQKY-1">
          <mxGeometry width="50" height="50" relative="1" as="geometry">
            <mxPoint x="214.5" y="40" as="sourcePoint" />
            <mxPoint x="214.5" y="90" as="targetPoint" />
          </mxGeometry>
        </mxCell>
        <mxCell id="GIh9812gzua0K8-fXQKY-6" value="กระบวนการ" style="rounded=0;whiteSpace=wrap;html=1;fontFamily=Sarabun;fontSource=https%3A%2F%2Ffonts.googleapis.com%2Fcss%3Ffamily%3DSarabun;" vertex="1" parent="GIh9812gzua0K8-fXQKY-1">
          <mxGeometry x="320" y="70" width="120" height="30" as="geometry" />
        </mxCell>
        <mxCell id="GIh9812gzua0K8-fXQKY-7" value="" style="endArrow=classic;html=1;rounded=0;" edge="1" parent="GIh9812gzua0K8-fXQKY-1">
          <mxGeometry width="50" height="50" relative="1" as="geometry">
            <mxPoint x="379" y="40" as="sourcePoint" />
            <mxPoint x="379.5" y="70" as="targetPoint" />
          </mxGeometry>
        </mxCell>
        <mxCell id="GIh9812gzua0K8-fXQKY-8" value="" style="endArrow=classic;html=1;rounded=0;" edge="1" parent="GIh9812gzua0K8-fXQKY-1">
          <mxGeometry width="50" height="50" relative="1" as="geometry">
            <mxPoint x="379.75" y="100" as="sourcePoint" />
            <mxPoint x="380.25" y="130" as="targetPoint" />
          </mxGeometry>
        </mxCell>
        <mxCell id="GIh9812gzua0K8-fXQKY-9" value="ประโยคเงื่อนไข" style="rhombus;whiteSpace=wrap;html=1;fontFamily=Sarabun;fontSource=https%3A%2F%2Ffonts.googleapis.com%2Fcss%3Ffamily%3DSarabun;" vertex="1" parent="GIh9812gzua0K8-fXQKY-1">
          <mxGeometry x="490" y="60" width="100" height="60" as="geometry" />
        </mxCell>
        <mxCell id="GIh9812gzua0K8-fXQKY-10" value="" style="endArrow=classic;html=1;rounded=0;" edge="1" parent="GIh9812gzua0K8-fXQKY-1">
          <mxGeometry width="50" height="50" relative="1" as="geometry">
            <mxPoint x="539.71" y="30" as="sourcePoint" />
            <mxPoint x="540.21" y="60" as="targetPoint" />
          </mxGeometry>
        </mxCell>
        <mxCell id="GIh9812gzua0K8-fXQKY-11" value="" style="endArrow=classic;html=1;rounded=0;" edge="1" parent="GIh9812gzua0K8-fXQKY-1">
          <mxGeometry width="50" height="50" relative="1" as="geometry">
            <mxPoint x="539.71" y="120" as="sourcePoint" />
            <mxPoint x="540" y="175" as="targetPoint" />
          </mxGeometry>
        </mxCell>
        <mxCell id="GIh9812gzua0K8-fXQKY-12" value="จริง" style="edgeLabel;html=1;align=center;verticalAlign=middle;resizable=0;points=[];fontFamily=Sarabun;fontSource=https%3A%2F%2Ffonts.googleapis.com%2Fcss%3Ffamily%3DSarabun;" vertex="1" connectable="0" parent="GIh9812gzua0K8-fXQKY-11">
          <mxGeometry x="-0.4142" y="-1" relative="1" as="geometry">
            <mxPoint as="offset" />
          </mxGeometry>
        </mxCell>
        <mxCell id="GIh9812gzua0K8-fXQKY-13" value="" style="endArrow=classic;html=1;rounded=0;exitX=1;exitY=0.5;exitDx=0;exitDy=0;" edge="1" parent="GIh9812gzua0K8-fXQKY-1" source="GIh9812gzua0K8-fXQKY-9">
          <mxGeometry width="50" height="50" relative="1" as="geometry">
            <mxPoint x="620" y="95" as="sourcePoint" />
            <mxPoint x="610" y="175" as="targetPoint" />
            <Array as="points">
              <mxPoint x="610" y="90" />
            </Array>
          </mxGeometry>
        </mxCell>
        <mxCell id="GIh9812gzua0K8-fXQKY-14" value="&lt;font data-font-src=&quot;https://fonts.googleapis.com/css?family=Sarabun&quot; face=&quot;Sarabun&quot;&gt;เท็จ&lt;/font&gt;" style="edgeLabel;html=1;align=center;verticalAlign=middle;resizable=0;points=[];" vertex="1" connectable="0" parent="GIh9812gzua0K8-fXQKY-13">
          <mxGeometry x="-0.0019" y="-2" relative="1" as="geometry">
            <mxPoint as="offset" />
          </mxGeometry>
        </mxCell>
        <mxCell id="GIh9812gzua0K8-fXQKY-15" value="&lt;font data-font-src=&quot;https://fonts.googleapis.com/css?family=Sarabun&quot; face=&quot;Sarabun&quot;&gt;ฟังก์ชัน/โมดูล&lt;/font&gt;" style="shape=process;whiteSpace=wrap;html=1;backgroundOutline=1;" vertex="1" parent="GIh9812gzua0K8-fXQKY-1">
          <mxGeometry x="25" y="180" width="120" height="30" as="geometry" />
        </mxCell>
        <mxCell id="GIh9812gzua0K8-fXQKY-16" value="" style="endArrow=classic;html=1;rounded=0;" edge="1" parent="GIh9812gzua0K8-fXQKY-1">
          <mxGeometry width="50" height="50" relative="1" as="geometry">
            <mxPoint x="84.70999999999998" y="150" as="sourcePoint" />
            <mxPoint x="85.20999999999998" y="180" as="targetPoint" />
          </mxGeometry>
        </mxCell>
        <mxCell id="GIh9812gzua0K8-fXQKY-17" value="" style="endArrow=classic;html=1;rounded=0;" edge="1" parent="GIh9812gzua0K8-fXQKY-1">
          <mxGeometry width="50" height="50" relative="1" as="geometry">
            <mxPoint x="84.70999999999998" y="210" as="sourcePoint" />
            <mxPoint x="85.20999999999998" y="240" as="targetPoint" />
          </mxGeometry>
        </mxCell>
        <mxCell id="GIh9812gzua0K8-fXQKY-18" value="" style="strokeWidth=2;html=1;shape=mxgraph.flowchart.start_2;whiteSpace=wrap;" vertex="1" parent="GIh9812gzua0K8-fXQKY-1">
          <mxGeometry x="205" y="185" width="20" height="20" as="geometry" />
        </mxCell>
        <mxCell id="GIh9812gzua0K8-fXQKY-19" value="" style="endArrow=classic;html=1;rounded=0;" edge="1" parent="GIh9812gzua0K8-fXQKY-1">
          <mxGeometry width="50" height="50" relative="1" as="geometry">
            <mxPoint x="214.70999999999998" y="155" as="sourcePoint" />
            <mxPoint x="215.20999999999998" y="185" as="targetPoint" />
          </mxGeometry>
        </mxCell>
        <mxCell id="GIh9812gzua0K8-fXQKY-20" value="" style="endArrow=classic;html=1;rounded=0;entryX=0;entryY=0.5;entryDx=0;entryDy=0;entryPerimeter=0;" edge="1" parent="GIh9812gzua0K8-fXQKY-1" target="GIh9812gzua0K8-fXQKY-18">
          <mxGeometry width="50" height="50" relative="1" as="geometry">
            <mxPoint x="189.99999999999997" y="155" as="sourcePoint" />
            <mxPoint x="190.49999999999997" y="185" as="targetPoint" />
            <Array as="points">
              <mxPoint x="190" y="180" />
            </Array>
          </mxGeometry>
        </mxCell>
        <mxCell id="GIh9812gzua0K8-fXQKY-21" value="" style="endArrow=classic;html=1;rounded=0;entryX=1;entryY=0.5;entryDx=0;entryDy=0;entryPerimeter=0;" edge="1" parent="GIh9812gzua0K8-fXQKY-1" target="GIh9812gzua0K8-fXQKY-18">
          <mxGeometry width="50" height="50" relative="1" as="geometry">
            <mxPoint x="239.99999999999997" y="155" as="sourcePoint" />
            <mxPoint x="240.49999999999997" y="185" as="targetPoint" />
            <Array as="points">
              <mxPoint x="240" y="180" />
            </Array>
          </mxGeometry>
        </mxCell>
        <mxCell id="GIh9812gzua0K8-fXQKY-22" value="" style="endArrow=classic;html=1;rounded=0;" edge="1" parent="GIh9812gzua0K8-fXQKY-1">
          <mxGeometry width="50" height="50" relative="1" as="geometry">
            <mxPoint x="214.70999999999998" y="205" as="sourcePoint" />
            <mxPoint x="215.20999999999998" y="235" as="targetPoint" />
          </mxGeometry>
        </mxCell>
        <mxCell id="GIh9812gzua0K8-fXQKY-23" value="&lt;font data-font-src=&quot;https://fonts.googleapis.com/css?family=Sarabun&quot; face=&quot;Sarabun&quot;&gt;ตัวเชื่อม&lt;/font&gt;" style="text;html=1;align=center;verticalAlign=middle;resizable=0;points=[];autosize=1;strokeColor=none;fillColor=none;" vertex="1" parent="GIh9812gzua0K8-fXQKY-1">
          <mxGeometry x="220" y="190" width="60" height="30" as="geometry" />
        </mxCell>
        <mxCell id="GIh9812gzua0K8-fXQKY-24" value="" style="endArrow=classic;html=1;rounded=0;" edge="1" parent="GIh9812gzua0K8-fXQKY-1">
          <mxGeometry width="50" height="50" relative="1" as="geometry">
            <mxPoint x="353.71" y="165" as="sourcePoint" />
            <mxPoint x="354.21" y="195" as="targetPoint" />
          </mxGeometry>
        </mxCell>
        <mxCell id="GIh9812gzua0K8-fXQKY-25" value="" style="verticalLabelPosition=bottom;verticalAlign=top;html=1;shape=offPageConnector;rounded=0;size=0.5;" vertex="1" parent="GIh9812gzua0K8-fXQKY-1">
          <mxGeometry x="339" y="195" width="30" height="30" as="geometry" />
        </mxCell>
        <mxCell id="GIh9812gzua0K8-fXQKY-26" value="" style="endArrow=classic;html=1;rounded=0;" edge="1" parent="GIh9812gzua0K8-fXQKY-1">
          <mxGeometry width="50" height="50" relative="1" as="geometry">
            <mxPoint x="405.71" y="195" as="sourcePoint" />
            <mxPoint x="406.21" y="225" as="targetPoint" />
          </mxGeometry>
        </mxCell>
        <mxCell id="GIh9812gzua0K8-fXQKY-27" value="" style="verticalLabelPosition=bottom;verticalAlign=top;html=1;shape=offPageConnector;rounded=0;size=0.5;" vertex="1" parent="GIh9812gzua0K8-fXQKY-1">
          <mxGeometry x="391" y="165" width="30" height="30" as="geometry" />
        </mxCell>
        <mxCell id="GIh9812gzua0K8-fXQKY-28" value="หน้าต่อไป" style="text;html=1;align=center;verticalAlign=middle;resizable=0;points=[];autosize=1;strokeColor=none;fillColor=none;fontFamily=Sarabun;fontSource=https%3A%2F%2Ffonts.googleapis.com%2Fcss%3Ffamily%3DSarabun;" vertex="1" parent="GIh9812gzua0K8-fXQKY-1">
          <mxGeometry x="345" y="220" width="70" height="30" as="geometry" />
        </mxCell>
        <mxCell id="GIh9812gzua0K8-fXQKY-29" value="ก" style="text;html=1;align=center;verticalAlign=middle;resizable=0;points=[];autosize=1;strokeColor=none;fillColor=none;fontFamily=Sarabun;fontSource=https%3A%2F%2Ffonts.googleapis.com%2Fcss%3Ffamily%3DSarabun;" vertex="1" parent="GIh9812gzua0K8-fXQKY-1">
          <mxGeometry x="339" y="190" width="30" height="30" as="geometry" />
        </mxCell>
        <mxCell id="GIh9812gzua0K8-fXQKY-30" value="ก" style="text;html=1;align=center;verticalAlign=middle;resizable=0;points=[];autosize=1;strokeColor=none;fillColor=none;fontFamily=Sarabun;fontSource=https%3A%2F%2Ffonts.googleapis.com%2Fcss%3Ffamily%3DSarabun;" vertex="1" parent="GIh9812gzua0K8-fXQKY-1">
          <mxGeometry x="391" y="160" width="30" height="30" as="geometry" />
        </mxCell>
        <mxCell id="GIh9812gzua0K8-fXQKY-31" value="แสดงผล/รับค่า" style="shape=parallelogram;perimeter=parallelogramPerimeter;whiteSpace=wrap;html=1;fixedSize=1;fontFamily=Sarabun;fontSource=https%3A%2F%2Ffonts.googleapis.com%2Fcss%3Ffamily%3DSarabun;" vertex="1" parent="GIh9812gzua0K8-fXQKY-1">
          <mxGeometry x="450" y="210" width="120" height="30" as="geometry" />
        </mxCell>
        <mxCell id="GIh9812gzua0K8-fXQKY-32" value="" style="endArrow=classic;html=1;rounded=0;" edge="1" parent="GIh9812gzua0K8-fXQKY-1">
          <mxGeometry width="50" height="50" relative="1" as="geometry">
            <mxPoint x="509.71" y="180" as="sourcePoint" />
            <mxPoint x="510.21" y="210" as="targetPoint" />
          </mxGeometry>
        </mxCell>
        <mxCell id="GIh9812gzua0K8-fXQKY-33" value="" style="endArrow=classic;html=1;rounded=0;" edge="1" parent="GIh9812gzua0K8-fXQKY-1">
          <mxGeometry width="50" height="50" relative="1" as="geometry">
            <mxPoint x="509.71" y="240" as="sourcePoint" />
            <mxPoint x="510.21" y="270" as="targetPoint" />
          </mxGeometry>
        </mxCell>
        <mxCell id="GIh9812gzua0K8-fXQKY-34" value="แก้ไขโจทย์ปัญหา" style="swimlane;fontFamily=Sarabun;fontSource=https%3A%2F%2Ffonts.googleapis.com%2Fcss%3Ffamily%3DSarabun;" vertex="1" parent="1">
          <mxGeometry x="-720" y="640" width="640" height="820" as="geometry" />
        </mxCell>
        <mxCell id="GIh9812gzua0K8-fXQKY-35" value="&lt;font data-font-src=&quot;https://fonts.googleapis.com/css?family=Sarabun&quot; face=&quot;Sarabun&quot;&gt;เริ่มต้น&lt;/font&gt;" style="ellipse;whiteSpace=wrap;html=1;" vertex="1" parent="GIh9812gzua0K8-fXQKY-34">
          <mxGeometry x="255" y="40" width="130" height="30" as="geometry" />
        </mxCell>
        <mxCell id="GIh9812gzua0K8-fXQKY-41" value="" style="endArrow=classic;html=1;rounded=0;" edge="1" parent="GIh9812gzua0K8-fXQKY-34">
          <mxGeometry width="50" height="50" relative="1" as="geometry">
            <mxPoint x="319.40999999999997" y="70" as="sourcePoint" />
            <mxPoint x="319.40999999999997" y="120" as="targetPoint" />
          </mxGeometry>
        </mxCell>
        <mxCell id="GIh9812gzua0K8-fXQKY-42" value="แสดงรายการและราคา" style="rounded=0;whiteSpace=wrap;html=1;fontFamily=Sarabun;fontSource=https%3A%2F%2Ffonts.googleapis.com%2Fcss%3Ffamily%3DSarabun;" vertex="1" parent="GIh9812gzua0K8-fXQKY-34">
          <mxGeometry x="265" y="120" width="120" height="30" as="geometry" />
        </mxCell>
        <mxCell id="GIh9812gzua0K8-fXQKY-43" value="" style="endArrow=classic;html=1;rounded=0;" edge="1" parent="GIh9812gzua0K8-fXQKY-34">
          <mxGeometry width="50" height="50" relative="1" as="geometry">
            <mxPoint x="319.40999999999997" y="150" as="sourcePoint" />
            <mxPoint x="319.90999999999997" y="180" as="targetPoint" />
          </mxGeometry>
        </mxCell>
        <mxCell id="GIh9812gzua0K8-fXQKY-44" value="ลูกค้าใส่เงิน&lt;div&gt;(เหรียญ/บัตร)&lt;/div&gt;" style="rounded=0;whiteSpace=wrap;html=1;" vertex="1" parent="GIh9812gzua0K8-fXQKY-34">
          <mxGeometry x="262.5" y="180" width="115" height="30" as="geometry" />
        </mxCell>
        <mxCell id="GIh9812gzua0K8-fXQKY-46" value="ลูกค้าเลือกสินค้าได้หลายชิ้น" style="rounded=0;whiteSpace=wrap;html=1;" vertex="1" parent="GIh9812gzua0K8-fXQKY-34">
          <mxGeometry x="257.5" y="260" width="120" height="40" as="geometry" />
        </mxCell>
        <mxCell id="GIh9812gzua0K8-fXQKY-47" value="คำนวณยอด&lt;div&gt;รวมราคาสินค้า&lt;/div&gt;" style="rhombus;whiteSpace=wrap;html=1;" vertex="1" parent="GIh9812gzua0K8-fXQKY-34">
          <mxGeometry x="262.5" y="380" width="110" height="80" as="geometry" />
        </mxCell>
        <mxCell id="GIh9812gzua0K8-fXQKY-48" value="" style="endArrow=classic;html=1;rounded=0;entryX=0.5;entryY=0;entryDx=0;entryDy=0;exitX=0.5;exitY=1;exitDx=0;exitDy=0;" edge="1" parent="GIh9812gzua0K8-fXQKY-34" source="GIh9812gzua0K8-fXQKY-46" target="GIh9812gzua0K8-fXQKY-47">
          <mxGeometry width="50" height="50" relative="1" as="geometry">
            <mxPoint x="250" y="270" as="sourcePoint" />
            <mxPoint x="300" y="220" as="targetPoint" />
          </mxGeometry>
        </mxCell>
        <mxCell id="GIh9812gzua0K8-fXQKY-51" value="หักยอดเงิน&lt;div&gt;+ จ่ายสินค้า&lt;/div&gt;" style="rounded=0;whiteSpace=wrap;html=1;" vertex="1" parent="GIh9812gzua0K8-fXQKY-34">
          <mxGeometry x="120" y="470" width="90" height="50" as="geometry" />
        </mxCell>
        <mxCell id="GIh9812gzua0K8-fXQKY-53" value="&lt;strong data-end=&quot;891&quot; data-start=&quot;862&quot;&gt;เงินลูกค้าเพียงพอหรือไม่&lt;/strong&gt;" style="rhombus;whiteSpace=wrap;html=1;" vertex="1" parent="GIh9812gzua0K8-fXQKY-34">
          <mxGeometry x="440" y="300" width="80" height="80" as="geometry" />
        </mxCell>
        <mxCell id="GIh9812gzua0K8-fXQKY-52" value="" style="endArrow=classic;startArrow=classic;html=1;rounded=0;exitX=0.5;exitY=0;exitDx=0;exitDy=0;entryX=0;entryY=0.5;entryDx=0;entryDy=0;" edge="1" parent="GIh9812gzua0K8-fXQKY-34" source="GIh9812gzua0K8-fXQKY-51" target="GIh9812gzua0K8-fXQKY-47">
          <mxGeometry width="50" height="50" relative="1" as="geometry">
            <mxPoint x="250" y="270" as="sourcePoint" />
            <mxPoint x="320" y="320" as="targetPoint" />
            <Array as="points">
              <mxPoint x="170" y="420" />
            </Array>
          </mxGeometry>
        </mxCell>
        <mxCell id="GIh9812gzua0K8-fXQKY-55" value="ใช่" style="text;html=1;align=center;verticalAlign=middle;whiteSpace=wrap;rounded=0;" vertex="1" parent="GIh9812gzua0K8-fXQKY-34">
          <mxGeometry x="370" y="310" width="60" height="30" as="geometry" />
        </mxCell>
        <mxCell id="GIh9812gzua0K8-fXQKY-57" value="มีเพียงพอ" style="rounded=0;whiteSpace=wrap;html=1;" vertex="1" parent="GIh9812gzua0K8-fXQKY-34">
          <mxGeometry x="430" y="440" width="90" height="30" as="geometry" />
        </mxCell>
        <mxCell id="GIh9812gzua0K8-fXQKY-58" value="" style="endArrow=classic;html=1;rounded=0;entryX=1;entryY=0.5;entryDx=0;entryDy=0;exitX=0;exitY=0.5;exitDx=0;exitDy=0;" edge="1" parent="GIh9812gzua0K8-fXQKY-34" source="GIh9812gzua0K8-fXQKY-57" target="GIh9812gzua0K8-fXQKY-47">
          <mxGeometry width="50" height="50" relative="1" as="geometry">
            <mxPoint x="250" y="490" as="sourcePoint" />
            <mxPoint x="300" y="440" as="targetPoint" />
          </mxGeometry>
        </mxCell>
        <mxCell id="GIh9812gzua0K8-fXQKY-60" value="ไม่พอ" style="rounded=0;whiteSpace=wrap;html=1;" vertex="1" parent="GIh9812gzua0K8-fXQKY-34">
          <mxGeometry x="445" y="220" width="70" height="40" as="geometry" />
        </mxCell>
        <mxCell id="GIh9812gzua0K8-fXQKY-59" value="" style="endArrow=classic;html=1;rounded=0;entryX=1;entryY=0.5;entryDx=0;entryDy=0;exitX=0.5;exitY=0;exitDx=0;exitDy=0;" edge="1" parent="GIh9812gzua0K8-fXQKY-34" source="GIh9812gzua0K8-fXQKY-60" target="GIh9812gzua0K8-fXQKY-44">
          <mxGeometry width="50" height="50" relative="1" as="geometry">
            <mxPoint x="480" y="200" as="sourcePoint" />
            <mxPoint x="300" y="440" as="targetPoint" />
            <Array as="points">
              <mxPoint x="475" y="190" />
            </Array>
          </mxGeometry>
        </mxCell>
        <mxCell id="GIh9812gzua0K8-fXQKY-61" value="" style="endArrow=classic;html=1;rounded=0;entryX=0.5;entryY=1;entryDx=0;entryDy=0;exitX=0.5;exitY=0;exitDx=0;exitDy=0;" edge="1" parent="GIh9812gzua0K8-fXQKY-34" source="GIh9812gzua0K8-fXQKY-53" target="GIh9812gzua0K8-fXQKY-60">
          <mxGeometry width="50" height="50" relative="1" as="geometry">
            <mxPoint x="250" y="490" as="sourcePoint" />
            <mxPoint x="300" y="440" as="targetPoint" />
          </mxGeometry>
        </mxCell>
        <mxCell id="GIh9812gzua0K8-fXQKY-63" value="&lt;p data-pm-slice=&quot;1 1 []&quot;&gt;รายการสินค้าที่ซื้อยอดรวมเงินทอน (เหรียญ/ธนบัตร)ยอดคงเหลือในตู้แยกตามประเภทเงิน&lt;/p&gt;" style="rounded=0;whiteSpace=wrap;html=1;" vertex="1" parent="GIh9812gzua0K8-fXQKY-34">
          <mxGeometry x="257.5" y="540" width="122.5" height="100" as="geometry" />
        </mxCell>
        <mxCell id="GIh9812gzua0K8-fXQKY-62" value="" style="endArrow=classic;html=1;rounded=0;exitX=0.5;exitY=1;exitDx=0;exitDy=0;" edge="1" parent="GIh9812gzua0K8-fXQKY-34" source="GIh9812gzua0K8-fXQKY-47" target="GIh9812gzua0K8-fXQKY-63">
          <mxGeometry width="50" height="50" relative="1" as="geometry">
            <mxPoint x="250" y="600" as="sourcePoint" />
            <mxPoint x="318" y="560" as="targetPoint" />
          </mxGeometry>
        </mxCell>
        <mxCell id="GIh9812gzua0K8-fXQKY-64" value="&lt;font face=&quot;Sarabun&quot;&gt;สิ้นสุด&lt;/font&gt;" style="ellipse;whiteSpace=wrap;html=1;" vertex="1" parent="GIh9812gzua0K8-fXQKY-34">
          <mxGeometry x="250" y="690" width="130" height="30" as="geometry" />
        </mxCell>
        <mxCell id="GIh9812gzua0K8-fXQKY-65" value="" style="endArrow=classic;html=1;rounded=0;" edge="1" parent="GIh9812gzua0K8-fXQKY-34">
          <mxGeometry width="50" height="50" relative="1" as="geometry">
            <mxPoint x="314.5" y="640" as="sourcePoint" />
            <mxPoint x="314.5" y="690" as="targetPoint" />
          </mxGeometry>
        </mxCell>
        <mxCell id="GIh9812gzua0K8-fXQKY-37" value="&lt;font data-font-src=&quot;https://fonts.googleapis.com/css?family=Sarabun&quot; face=&quot;Sarabun&quot;&gt;โจทย์ปัญหา&lt;/font&gt;" style="swimlane;whiteSpace=wrap;html=1;" vertex="1" parent="1">
          <mxGeometry x="-720" y="320" width="640" height="240" as="geometry" />
        </mxCell>
        <mxCell id="GIh9812gzua0K8-fXQKY-38" value="&lt;font data-font-src=&quot;https://fonts.googleapis.com/css?family=Sarabun&quot; face=&quot;Sarabun&quot; style=&quot;font-size: 14px;&quot;&gt;จงเขียน Flowchart เพื่อแสดงขั้นตอนการทำงาน ของเครื่องขายน้ำอัตโนมัติที่ชื่อว่า &quot;ตะพาบลอย&quot;&lt;br&gt;โดยจะต้องมีสินค้าดังนี้&lt;br&gt;&lt;u&gt;ประเภทน้ำ&lt;span style=&quot;white-space: pre;&quot;&gt;&#x9;&lt;/span&gt;&lt;span style=&quot;white-space: pre;&quot;&gt;&#x9;&lt;/span&gt;&lt;span style=&quot;white-space: pre;&quot;&gt;&#x9;&lt;/span&gt;&lt;span style=&quot;white-space: pre;&quot;&gt;&#x9;&lt;/span&gt;&lt;span style=&quot;white-space: pre;&quot;&gt;&#x9;&lt;/span&gt;&lt;span style=&quot;white-space: pre;&quot;&gt;&#x9;&lt;span style=&quot;white-space: pre;&quot;&gt;&#x9;&lt;/span&gt;ข&lt;/span&gt;นม&lt;/u&gt;&lt;br&gt;&lt;span style=&quot;white-space: pre;&quot;&gt;&#x9;&lt;/span&gt;- โค้ก กระป๋องละ 10 บาท&lt;span style=&quot;white-space: pre;&quot;&gt;&#x9;&lt;/span&gt;&lt;span style=&quot;white-space: pre;&quot;&gt;&#x9;&lt;/span&gt;&lt;span style=&quot;white-space: pre;&quot;&gt;&#x9;&lt;/span&gt;&lt;span style=&quot;white-space: pre;&quot;&gt;&#x9;&lt;/span&gt;- เมล็ดทานตะวัน 13 บาท&lt;br&gt;&lt;span style=&quot;white-space: pre;&quot;&gt;&#x9;&lt;/span&gt;- น้ำเขียว กระป๋องละ 12 บาท&lt;span style=&quot;white-space: pre;&quot;&gt;&#x9;&lt;/span&gt;&lt;span style=&quot;white-space: pre;&quot;&gt;&#x9;&lt;/span&gt;&lt;span style=&quot;white-space: pre;&quot;&gt;&#x9;&lt;/span&gt;- ถั่วแปบ 20 บาท&lt;br&gt;&lt;span style=&quot;white-space: pre;&quot;&gt;&#x9;&lt;/span&gt;- อเมริกาโน่ 30 บาท&lt;span style=&quot;white-space: pre;&quot;&gt;&#x9;&lt;/span&gt;&lt;span style=&quot;white-space: pre;&quot;&gt;&#x9;&lt;/span&gt;&lt;span style=&quot;white-space: pre;&quot;&gt;&#x9;&lt;/span&gt;&lt;span style=&quot;white-space: pre;&quot;&gt;&#x9;&lt;/span&gt;&lt;span style=&quot;white-space: pre;&quot;&gt;&#x9;&lt;/span&gt;- จิ้นส้มหมก 15 บาท&lt;br&gt;&lt;span style=&quot;white-space: pre;&quot;&gt;&#x9;&lt;/span&gt;- ลาเต้ หวานเจี๊ยบ 35 บาท&lt;span style=&quot;white-space: pre;&quot;&gt;&#x9;&lt;/span&gt;&lt;br&gt;&lt;br&gt;&lt;u&gt;สิ่งที่ระบบควรจะทำได้&lt;/u&gt;&lt;br&gt;&lt;span style=&quot;white-space: pre;&quot;&gt;&#x9;&lt;/span&gt;- ลูกค้าเลือกสินค้า, ระบบจะต้องรวมยอดขาย และรวมรายการสินค้าทั้งหมดที่ลูกค้าเลือก&lt;br&gt;&lt;span style=&quot;white-space: pre;&quot;&gt;&#x9;&lt;/span&gt;- สรุปยอดว่าเหลือเงินในตู้อีกเท่าไหร่ เหลือเหรียญอะไรบ้าง? ธนบัตรอะไรบ้าง? อย่างละเท่าไหร่?&lt;br&gt;&lt;br&gt;&lt;br&gt;&lt;/font&gt;" style="text;html=1;align=left;verticalAlign=middle;resizable=0;points=[];autosize=1;strokeColor=none;fillColor=none;fontSize=14;" vertex="1" parent="GIh9812gzua0K8-fXQKY-37">
          <mxGeometry x="25" y="30" width="580" height="240" as="geometry" />
        </mxCell>
        <mxCell id="GIh9812gzua0K8-fXQKY-45" value="" style="endArrow=classic;html=1;rounded=0;exitX=0.5;exitY=1;exitDx=0;exitDy=0;" edge="1" parent="1" source="GIh9812gzua0K8-fXQKY-44">
          <mxGeometry width="50" height="50" relative="1" as="geometry">
            <mxPoint x="-470" y="910" as="sourcePoint" />
            <mxPoint x="-400" y="900" as="targetPoint" />
          </mxGeometry>
        </mxCell>
        <mxCell id="GIh9812gzua0K8-fXQKY-54" value="" style="endArrow=none;html=1;rounded=0;entryX=0;entryY=0.5;entryDx=0;entryDy=0;" edge="1" parent="1" target="GIh9812gzua0K8-fXQKY-53">
          <mxGeometry width="50" height="50" relative="1" as="geometry">
            <mxPoint x="-400" y="980" as="sourcePoint" />
            <mxPoint x="-420" y="860" as="targetPoint" />
          </mxGeometry>
        </mxCell>
        <mxCell id="GIh9812gzua0K8-fXQKY-56" value="" style="endArrow=classic;html=1;rounded=0;exitX=0.5;exitY=1;exitDx=0;exitDy=0;" edge="1" parent="1" source="GIh9812gzua0K8-fXQKY-53">
          <mxGeometry width="50" height="50" relative="1" as="geometry">
            <mxPoint x="-470" y="1130" as="sourcePoint" />
            <mxPoint x="-240" y="1080" as="targetPoint" />
          </mxGeometry>
        </mxCell>
      </root>
    </mxGraphModel>
  </diagram>
</mxfile>
